<svg id="Layer_1" data-name="Layer 1" xmlns="http://www.w3.org/2000/svg" viewBox="0 0 35 15"><defs><style>.cls-1{fill:#1e94d2;}</style></defs><title>Ads Label</title><path class="cls-1" d="M31.69,14.46H3.31A2.32,2.32,0,0,1,1,12.15V2.85A2.32,2.32,0,0,1,3.31.54H31.69A2.32,2.32,0,0,1,34,2.85v9.29A2.32,2.32,0,0,1,31.69,14.46ZM3.31,1.54A1.31,1.31,0,0,0,2,2.85v9.29a1.31,1.31,0,0,0,1.31,1.31H31.69A1.31,1.31,0,0,0,33,12.15V2.85a1.31,1.31,0,0,0-1.31-1.31H3.31Z"/><path class="cls-1" d="M10,3.34H12.2l2.62,8.41H13.24L12.6,9.61h-3L8.94,11.75H7.43ZM10.5,6.52L10,8.35h2.28L11.7,6.55q-0.52-1.84-.58-2.18h0Q10.95,5,10.5,6.52Z"/><path class="cls-1" d="M19.5,5.17V2.65H21v9.1H19.83l-0.25-.6h0a1.76,1.76,0,0,1-.7.52,2.38,2.38,0,0,1-1,.2,2.27,2.27,0,0,1-1.37-.39,2.35,2.35,0,0,1-.81-1.07,4.56,4.56,0,0,1-.27-1.67,5.26,5.26,0,0,1,.24-1.67,3.09,3.09,0,0,1,.66-1.16,2.63,2.63,0,0,1,1-.65A3.16,3.16,0,0,1,18.41,5,4.69,4.69,0,0,1,19.5,5.17Zm-1.24,5.5a1.38,1.38,0,0,0,1.27-.76V6.47a1.49,1.49,0,0,0-.43-0.14,2.48,2.48,0,0,0-.51-0.06,1.45,1.45,0,0,0-1.32.59,3.21,3.21,0,0,0-.38,1.73,3.54,3.54,0,0,0,.16,1.13,1.51,1.51,0,0,0,.46.7A1.15,1.15,0,0,0,18.27,10.67Z"/><path class="cls-1" d="M25.72,9.93a0.6,0.6,0,0,0-.19-0.43,2.54,2.54,0,0,0-.83-0.44l-0.84-.32A2.74,2.74,0,0,1,23.4,8.5,2.37,2.37,0,0,1,23,8.16a1.83,1.83,0,0,1-.33-0.48,1.65,1.65,0,0,1-.15-0.74,2,2,0,0,1,.11-0.62A1.74,1.74,0,0,1,23,5.69a2.35,2.35,0,0,1,.76-0.52,2.76,2.76,0,0,1,1.16-.22,3.53,3.53,0,0,1,1.33.23,2.36,2.36,0,0,1,.92.62l-0.95,1a1.9,1.9,0,0,0-.58-0.43,1.68,1.68,0,0,0-.75-0.17,1,1,0,0,0-.67.2,0.62,0.62,0,0,0-.24.5,0.64,0.64,0,0,0,.19.43,3.09,3.09,0,0,0,1.06.53,5.49,5.49,0,0,1,1.24.58A1.93,1.93,0,0,1,27,9a1.66,1.66,0,0,1,.2.84,1.78,1.78,0,0,1-.32,1,2.19,2.19,0,0,1-.88.74,3.08,3.08,0,0,1-1.35.27,4.8,4.8,0,0,1-1-.11,3.28,3.28,0,0,1-.95-0.35,3.13,3.13,0,0,1-.68-0.49l0.89-1a2.67,2.67,0,0,0,.76.55,2.21,2.21,0,0,0,1,.24,1.14,1.14,0,0,0,.74-0.21A0.66,0.66,0,0,0,25.72,9.93Z"/></svg>