<svg xmlns="http://www.w3.org/2000/svg" width="33" height="13.916" viewBox="0 0 33 13.916">
  <g id="Group_681" data-name="Group 681" transform="translate(-1 -0.542)">
    <path id="Path_2695" data-name="Path 2695" d="M31.687.542H3.312A2.314,2.314,0,0,0,1,2.854v9.292a2.314,2.314,0,0,0,2.312,2.312H31.687A2.315,2.315,0,0,0,34,12.146V2.854A2.315,2.315,0,0,0,31.687.542ZM33,12.146a1.314,1.314,0,0,1-1.313,1.312H3.312A1.313,1.313,0,0,1,2,12.146V2.854A1.313,1.313,0,0,1,3.312,1.542H31.687A1.314,1.314,0,0,1,33,2.854Z" fill="#ea454c"/>
    <path id="Path_2696" data-name="Path 2696" d="M10.88,7.285a2.46,2.46,0,0,0-.2-.449,1.971,1.971,0,0,0-.26-.352,1.155,1.155,0,0,0-.292-.228.625.625,0,0,0-.294-.081.771.771,0,0,0-.4.111,1.672,1.672,0,0,0-.35.288,3.225,3.225,0,0,0-.318.4c-.1.148-.2.3-.306.451A.715.715,0,0,0,8.275,7.4.56.56,0,0,0,8,7.469a.86.86,0,0,0-.217.168,1.342,1.342,0,0,0-.169.229,2,2,0,0,0-.123.245c-.034.08-.061.154-.084.221s-.039.119-.049.153l.03.184c.017.11.04.251.067.423s.059.367.094.586.07.443.105.674.07.46.1.686.064.433.092.621.049.349.067.481.027.221.03.266v0c.023-.018.063-.053.119-.107s.118-.111.179-.172.117-.12.168-.176a.524.524,0,0,0,.092-.122.145.145,0,0,0,0-.045c0-.032,0-.092-.01-.18s-.017-.215-.031-.383-.034-.359-.055-.57-.043-.425-.065-.642q-.083-.763-.192-1.719c.242.125.481.235.716.328s.451.171.649.232.372.108.521.139a1.807,1.807,0,0,0,.331.047.129.129,0,0,0,.075-.015l.555-.641a2.394,2.394,0,0,0,.015-.265,2.915,2.915,0,0,0-.029-.373A2.279,2.279,0,0,0,10.88,7.285Zm-.347.834a1.434,1.434,0,0,1-.294-.043c-.123-.029-.258-.068-.4-.117s-.3-.105-.453-.168-.3-.13-.436-.2c.087-.135.162-.249.225-.341a1.476,1.476,0,0,1,.183-.227.535.535,0,0,1,.2-.125.8.8,0,0,1,.263-.038.476.476,0,0,1,.257.083.889.889,0,0,1,.241.238,1.65,1.65,0,0,1,.2.383,2.7,2.7,0,0,1,.136.521C10.635,8.107,10.6,8.119,10.533,8.119Z" fill="#ea454c"/>
    <path id="Path_2697" data-name="Path 2697" d="M25.792,6.617a4.264,4.264,0,0,0-.135-.474,2.351,2.351,0,0,0-.131-.312c-.04-.075-.066-.113-.078-.113l-.573.895c.04.068.092.158.155.27s.127.23.192.354.12.244.17.361a1.587,1.587,0,0,1,.1.292c-.008.013-.041.026-.1.04s-.138.027-.234.041-.208.027-.334.039-.257.024-.392.033-.276.019-.416.025-.276.009-.4.009h-.146a1.878,1.878,0,0,1-.323-.026.919.919,0,0,1-.291-.1.9.9,0,0,1-.249-.206,1.287,1.287,0,0,1-.2-.347,4.574,4.574,0,0,0-.236-.486,2.7,2.7,0,0,0-.265-.39,1.362,1.362,0,0,0-.286-.26.541.541,0,0,0-.3-.1.7.7,0,0,0-.322.078,1.431,1.431,0,0,0-.3.2,2.332,2.332,0,0,0-.281.288c-.09.109-.177.22-.26.335s-.166.228-.245.341-.158.214-.232.305a1.889,1.889,0,0,1-.221.23.5.5,0,0,1-.214.117,1.075,1.075,0,0,1-.12.011c-.057,0-.114,0-.172,0h-5.4a1.136,1.136,0,0,1-.311-.041,1.173,1.173,0,0,1-.281-.123q-.023-.383-.03-.73t-.009-.7c0-.234,0-.474,0-.721s0-.512-.006-.8-.011-.592-.02-.926-.027-.706-.049-1.112c0-.018-.005-.041-.008-.07s-.011-.044-.025-.046a.208.208,0,0,0-.079.035c-.041.024-.088.054-.145.09s-.115.077-.18.122-.124.089-.183.132-.111.084-.158.121a.873.873,0,0,0-.094.083c.027.28.053.559.076.837s.047.554.069.826c.018.23.034.466.051.708s.03.482.043.719.023.468.034.693.017.434.023.629a1.63,1.63,0,0,0,.086.5.95.95,0,0,0,.237.377,1.032,1.032,0,0,0,.4.238,1.792,1.792,0,0,0,.578.083h5.228v0c.1,0,.194-.008.292-.02a1.16,1.16,0,0,0,.322-.084,1.08,1.08,0,0,0,.3-.2,1.454,1.454,0,0,0,.277-.369,1.047,1.047,0,0,0,.213.178,2.9,2.9,0,0,0,.3.168,3.626,3.626,0,0,0,.351.148c.122.045.24.084.355.116s.222.058.32.077a1.337,1.337,0,0,0,.245.028.234.234,0,0,0,.123-.023l.451-.61a.473.473,0,0,0,.115.176,1.156,1.156,0,0,0,.242.195,1.529,1.529,0,0,0,.343.157A1.267,1.267,0,0,0,23.4,9V9.01h.228c.11,0,.231,0,.365-.011s.271-.019.41-.032.28-.031.417-.053.269-.046.388-.075a2.032,2.032,0,0,0,.318-.1.7.7,0,0,0,.214-.123,2.941,2.941,0,0,0,.137-.639q.021-.272.021-.447c0-.108-.007-.241-.019-.4A3.449,3.449,0,0,0,25.792,6.617ZM22.07,8.16a1.152,1.152,0,0,1-.216-.027c-.087-.017-.184-.041-.29-.07s-.212-.064-.325-.1-.218-.076-.318-.118-.19-.082-.269-.123a.889.889,0,0,1-.177-.115c.072-.105.136-.2.193-.3a1.792,1.792,0,0,1,.17-.24.715.715,0,0,1,.189-.159.517.517,0,0,1,.257-.058.356.356,0,0,1,.223.105,1.426,1.426,0,0,1,.241.281,2.952,2.952,0,0,1,.229.408,3.975,3.975,0,0,1,.187.486C22.153,8.151,22.122,8.16,22.07,8.16Z" fill="#ea454c"/>
    <rect id="Rectangle_2120" data-name="Rectangle 2120" width="0.847" height="0.847" transform="translate(23.643 4.767) rotate(-44.977)" fill="#ea454c"/>
    <rect id="Rectangle_2121" data-name="Rectangle 2121" width="0.847" height="0.847" transform="translate(24.991 4.767) rotate(-44.977)" fill="#ea454c"/>
    <path id="Path_2698" data-name="Path 2698" d="M27.665,2.947c0-.02,0-.044,0-.072s-.013-.044-.03-.044a.209.209,0,0,0-.078.036c-.04.024-.089.055-.145.093s-.116.082-.179.128-.125.092-.184.137l-.157.121a.927.927,0,0,0-.1.084c.015.253.027.471.037.657s.02.346.026.48.014.246.02.337.01.168.015.23q.018.333.037.783c.012.3.023.621.034.964s.018.7.027,1.073.016.741.022,1.108c0,.013,0,.021,0,.024l.009.006h0c.012-.012.035-.04.07-.082s.07-.092.11-.148l.125-.178.118-.168c.035-.051.063-.09.082-.12l.03-.042c.013-.162.024-.341.035-.537s.018-.4.027-.61.016-.425.021-.643.009-.428.013-.634.007-.4.009-.588,0-.353,0-.5V3.885c0-.173,0-.342,0-.5S27.667,3.072,27.665,2.947Z" fill="#ea454c"/>
  </g>
</svg>
