<?xml version="1.0" encoding="utf-8"?>
<!-- Generator: Adobe Illustrator 19.2.1, SVG Export Plug-In . SVG Version: 6.00 Build 0)  -->
<svg version="1.1" id="Layer_1" xmlns="http://www.w3.org/2000/svg" xmlns:xlink="http://www.w3.org/1999/xlink" x="0px" y="0px"
	 viewBox="0 0 171.9 171.2" style="enable-background:new 0 0 171.9 171.2;" xml:space="preserve">
<style type="text/css">
	.st0{fill:#FFEDED;}
</style>
<g>
	<path class="st0" d="M100.4,103.5c-1-2.8-4.1-4.2-6.9-3.2l-29.9,10.9c-1.7-2.2-4-3.9-6.7-4.9V62.6c0-3-2.3-5.4-5.3-5.5
		c-3,0-5.4,2.3-5.5,5.3c0,0,0,0.1,0,0.1v43.6c-7.9,3-11.8,11.8-8.9,19.6c3,7.9,11.8,11.8,19.6,8.9c5.6-2.1,9.4-7.3,9.8-13.2
		l30.4-11.1C99.9,109.4,101.4,106.3,100.4,103.5L100.4,103.5z"/>
	<path class="st0" d="M51.5,3.4C33,3.4,15.5,7.7,0,15.3v18c13.2-7.8,28.1-12.6,43.6-13.8v15.3c0,10.4,15.9,10.4,15.9,0V19.6
		c21.3,1.6,41.6,10,57.8,23.9l-10.8,10.8c-7.4,7.4,3.8,18.6,11.2,11.2l10.8-10.8c13.9,16.2,22.3,36.5,23.9,57.8h-15.3
		c-10.4,0-10.4,15.9,0,15.9h15.3c-1.2,15.2-5.8,29.8-13.3,42.8h18c7.4-15.3,11.5-32.5,11.5-50.7c0,0,0,0,0,0
		C168.6,55.8,116.2,3.4,51.5,3.4z"/>
</g>
</svg>
