<svg data-name="Layer 1" xmlns="http://www.w3.org/2000/svg" width="373" height="107" style=""><rect id="backgroundrect" width="100%" height="100%" x="0" y="0" fill="none" stroke="none" style="" class="selected"/><defs><style>.cls-1{fill:#132a3e;}.cls-2{fill:#0095db;}</style></defs><title>Short Logo Source</title><g class="currentLayer" style=""><title>Layer 1</title><g class=""><path class="cls-1" d="M331.32091903686523,78.46546745300293 H300.91088485717773 V24.545454025268555 h30.40999984741211 A13.84000015258789,13.84000015258789 0 0 1 345.17089462280273,38.365461349487305 v26.280000686645508 A13.84000015258789,13.84000015258789 0 0 1 331.32091903686523,78.46546745300293 zm-19.219999313354492,-5.909999847412109 h17.450000762939453 a7.920000076293945,7.920000076293945 0 0 0 7.920000076293945,-7.920000076293945 V38.365461349487305 a7.920000076293945,7.920000076293945 0 0 0 -7.920000076293945,-7.920000076293945 H312.100887298584 v42.11000061035156 z" id="svg_1"/><path class="cls-1" d="M331.32091903686523,78.46546745300293 H300.91088485717773 V24.545454025268555 h30.40999984741211 A13.84000015258789,13.84000015258789 0 0 1 345.17089462280273,38.365461349487305 v26.280000686645508 A13.84000015258789,13.84000015258789 0 0 1 331.32091903686523,78.46546745300293 zm-19.219999313354492,-5.909999847412109 h17.450000762939453 a7.920000076293945,7.920000076293945 0 0 0 7.920000076293945,-7.920000076293945 V38.365461349487305 a7.920000076293945,7.920000076293945 0 0 0 -7.920000076293945,-7.920000076293945 H312.100887298584 v42.11000061035156 z" id="svg_7"/><polygon class="cls-1" points="145.04088973999023,78.46546745300293 131.7109031677246,78.46546745300293 109.94088363647461,24.615461349487305 122.87090682983398,24.545454025268555 141.0708885192871,69.31547355651855 159.28087997436523,24.545454025268555 166.8208885192871,24.615461349487305 145.04088973999023,78.46546745300293 " id="svg_8"/><polygon class="cls-1" points="201.8208885192871,24.545454025268555 188.5909080505371,24.545454025268555 166.8208885192871,78.39546012878418 178.42089462280273,78.46546745300293 196.63088607788086,33.685468673706055 214.8308982849121,78.46546745300293 223.60088729858398,78.39546012878418 201.8208885192871,24.545454025268555 " id="svg_9"/><polygon class="cls-1" points="97.15090560913086,78.46546745300293 58.38088607788086,78.46546745300293 58.38088607788086,75.51545524597168 58.38088607788086,27.495466232299805 58.38088607788086,24.545454025268555 97.15090560913086,24.545454025268555 97.15090560913086,30.44544792175293 69.57088851928711,30.44544792175293 69.57088851928711,72.55546379089355 97.15090560913086,72.55546379089355 97.15090560913086,78.46546745300293 " id="svg_10"/><rect class="cls-2" x="29.09090805053711" y="46.255475997924805" width="54.36000061035156" height="10.5" id="svg_11"/><polygon class="cls-1" points="288.120906829834,78.39546012878418 288.120906829834,24.545454025268555 279.52087020874023,24.545454025268555 279.52087020874023,66.43546867370605 248.31090927124023,24.58546257019043 236.39089584350586,24.545454025268555 236.39089584350586,78.46546745300293 247.5808982849121,78.46546745300293 247.5808982849121,36.055463790893555 278.27087020874023,78.39546012878418 288.120906829834,78.39546012878418 " id="svg_12"/><polygon class="cls-1" points="145.04088973999023,78.46546745300293 131.7109031677246,78.46546745300293 109.94088363647461,24.615461349487305 122.87090682983398,24.545454025268555 141.0708885192871,69.31547355651855 159.28087997436523,24.545454025268555 166.8208885192871,24.615461349487305 145.04088973999023,78.46546745300293 " id="svg_2"/><polygon class="cls-1" points="201.8208885192871,24.545454025268555 188.5909080505371,24.545454025268555 166.8208885192871,78.39546012878418 178.42089462280273,78.46546745300293 196.63088607788086,33.685468673706055 214.8308982849121,78.46546745300293 223.60088729858398,78.39546012878418 201.8208885192871,24.545454025268555 " id="svg_3"/><polygon class="cls-1" points="96.24181747436523,79.37455940246582 57.47179412841797,79.37455940246582 57.47179412841797,76.42454719543457 57.47179412841797,28.40455722808838 57.47179412841797,25.45454502105713 96.24181747436523,25.45454502105713 96.24181747436523,31.354538917541504 68.66179656982422,31.354538917541504 68.66179656982422,73.46455574035645 96.24181747436523,73.46455574035645 96.24181747436523,79.37455940246582 " id="svg_4"/><rect class="cls-2" x="29.09090805053711" y="46.255475997924805" width="54.36000061035156" height="10.5" id="svg_5"/><polygon class="cls-1" points="288.120906829834,78.39546012878418 288.120906829834,24.545454025268555 279.52087020874023,24.545454025268555 279.52087020874023,66.43546867370605 248.31090927124023,24.58546257019043 236.39089584350586,24.545454025268555 236.39089584350586,78.46546745300293 247.5808982849121,78.46546745300293 247.5808982849121,36.055463790893555 278.27087020874023,78.39546012878418 288.120906829834,78.39546012878418 " id="svg_6"/></g></g></svg>