<svg xmlns="http://www.w3.org/2000/svg" width="33" height="13.92" viewBox="0 0 33 13.92">
    <defs>
        <style>
            .cls-1{fill:#1e94d2}
        </style>
    </defs>
    <g id="Ads_Label-02" data-name="Ads Label-02" transform="translate(-1 -.54)">
        <path id="Path_2689" d="M31.69 14.46H3.31A2.32 2.32 0 0 1 1 12.15v-9.3A2.32 2.32 0 0 1 3.31.54h28.38A2.32 2.32 0 0 1 34 2.85v9.29a2.32 2.32 0 0 1-2.31 2.32zM3.31 1.54A1.31 1.31 0 0 0 2 2.85v9.29a1.31 1.31 0 0 0 1.31 1.31h28.38a1.31 1.31 0 0 0 1.31-1.3v-9.3a1.31 1.31 0 0 0-1.31-1.31z" class="cls-1" data-name="Path 2689"/>
        <path id="Path_2690" d="M10 3.34h2.2l2.62 8.41h-1.58l-.64-2.14h-3l-.66 2.14H7.43zm.5 3.18L10 8.35h2.28l-.58-1.8q-.52-1.84-.58-2.18-.17.63-.62 2.15z" class="cls-1" data-name="Path 2690"/>
        <path id="Path_2691" d="M19.5 5.17V2.65H21v9.1h-1.17l-.25-.6a1.76 1.76 0 0 1-.7.52 2.38 2.38 0 0 1-1 .2 2.27 2.27 0 0 1-1.37-.39 2.35 2.35 0 0 1-.81-1.07 4.56 4.56 0 0 1-.27-1.67 5.26 5.26 0 0 1 .24-1.67 3.09 3.09 0 0 1 .66-1.16 2.63 2.63 0 0 1 1-.65A3.16 3.16 0 0 1 18.41 5a4.69 4.69 0 0 1 1.09.17zm-1.24 5.5a1.38 1.38 0 0 0 1.27-.76V6.47a1.49 1.49 0 0 0-.43-.14 2.48 2.48 0 0 0-.51-.06 1.45 1.45 0 0 0-1.32.59 3.21 3.21 0 0 0-.38 1.73 3.54 3.54 0 0 0 .16 1.13 1.51 1.51 0 0 0 .46.7 1.15 1.15 0 0 0 .76.25z" class="cls-1" data-name="Path 2691"/>
        <path id="Path_2692" d="M25.72 9.93a.6.6 0 0 0-.19-.43 2.54 2.54 0 0 0-.83-.44l-.84-.32a2.74 2.74 0 0 1-.46-.24 2.37 2.37 0 0 1-.4-.34 1.83 1.83 0 0 1-.33-.48 1.65 1.65 0 0 1-.15-.74 2 2 0 0 1 .11-.62 1.74 1.74 0 0 1 .37-.63 2.35 2.35 0 0 1 .76-.52 2.76 2.76 0 0 1 1.16-.22 3.53 3.53 0 0 1 1.33.23 2.36 2.36 0 0 1 .92.62l-.95 1a1.9 1.9 0 0 0-.58-.43 1.68 1.68 0 0 0-.75-.17 1 1 0 0 0-.67.2.62.62 0 0 0-.24.5.64.64 0 0 0 .19.43 3.09 3.09 0 0 0 1.06.53 5.49 5.49 0 0 1 1.24.58A1.93 1.93 0 0 1 27 9a1.66 1.66 0 0 1 .2.84 1.78 1.78 0 0 1-.32 1 2.19 2.19 0 0 1-.88.74 3.08 3.08 0 0 1-1.35.27 4.8 4.8 0 0 1-1-.11 3.28 3.28 0 0 1-.95-.35 3.13 3.13 0 0 1-.68-.49l.89-1a2.67 2.67 0 0 0 .76.55 2.21 2.21 0 0 0 1 .24 1.14 1.14 0 0 0 .74-.21.66.66 0 0 0 .31-.55z" class="cls-1" data-name="Path 2692"/>
    </g>
</svg>
